# AST/ASF file generated using VICON BodyLanguage
# -----------------------------------------------
:version 1.10
:name VICON
:units
  mass 1.0
  length 0.45
  angle deg
:documentation
   .ast/.asf automatically generated from VICON data using
   VICON BodyBuilder and BodyLanguage model FoxedUp or BRILLIANT.MOD
:root
   order TX TY TZ RX RY RZ
   axis XYZ
   position 0 0 0  
   orientation 0 0 0 
:bonedata
  begin
     id 1 
     name lhipjoint
     direction 0.577973 -0.728611 0.367523 
     length 2.48544 
     axis 0 0 0  XYZ
  end
  begin
     id 2 
     name lfemur
     direction 0.34202 -0.939693 0  
     length 7.1921  
     axis 0 0 20  XYZ
    dof rx ry rz
    limits (-160.0 20.0)
           (-70.0 70.0)
           (-60.0 70.0)
  end
  begin
     id 3 
     name ltibia
     direction 0.34202 -0.939693 0   
     length 7.71059   
     axis 0 0 20   XYZ
    dof rx
    limits (-10.0 170.0)
  end
  begin
     id 4 
     name lfoot
     direction 0.089538 -0.246004 0.965124   
     length 2.19909   
     axis -90 7.62852e-016 20   XYZ
    dof rx rz
    limits (-45.0 90.0)
           (-70.0 20.0)
  end
  begin
     id 5 
     name ltoes
     direction 1.53544e-011 -4.21829e-011 1   
     length 1.10116   
     axis -90 7.62852e-016 20   XYZ
    dof rx
    limits (-90.0 20.0)
  end
  begin
     id 6 
     name rhipjoint
     direction -0.554414 -0.743062 0.374812   
     length 2.4371  
     axis 0 0 0  XYZ 
  end
  begin
     id 7 
     name rfemur
     direction -0.34202 -0.939693 0   
     length 7.47254   
     axis 0 0 -20   XYZ
    dof rx ry rz
    limits (-160.0 20.0)
           (-70.0 70.0)
           (-70.0 60.0)
  end
  begin
     id 8 
     name rtibia
     direction -0.34202 -0.939693 0   
     length 7.65855   
     axis 0 0 -20   XYZ
    dof rx
    limits (-10.0 170.0)
 end
 begin
     id 9 
     name rfoot
     direction -0.133779 -0.367555 0.92033   
     length 2.43006  
     axis -90 -7.62852e-016 -20   XYZ
    dof rx rz
    limits (-45.0 90.0)
           (-20.0 70.0)
  end
  begin
     id 10 
     name rtoes
     direction -1.53563e-011 -4.21889e-011 1   
     length 1.19625   
     axis -90 -7.62852e-016 -20   XYZ
    dof rx
    limits (-90.0 20.0)
  end
  begin
     id 11 
     name lowerback
     direction 0.0249066 0.998043 -0.0573585   
     length 2.08485   
     axis 0 0 0   XYZ
    dof rx ry rz
    limits (-20.0 45.0)
           (-30.0 30.0)
           (-30.0 30.0)
  end
  begin
     id 12 
     name upperback
     direction 0.0237884 0.999673 0.00943178   
     length 2.08515   
     axis 0 0 0   XYZ
    dof rx ry rz
    limits (-20.0 45.0)
           (-30.0 30.0)
           (-30.0 30.0)
  end
  begin
     id 13 
     name thorax
     direction 0.0106671 0.999301 0.0358174   
     length 2.09037   
     axis 0 0 0   XYZ
    dof rx ry rz
    limits (-20.0 45.0)
           (-30.0 30.0)
           (-30.0 30.0)
  end
  begin
     id 14 
     name lowerneck
     direction -0.0580016 0.987052 0.149546   
     length 1.84454   
     axis 0 0 0   XYZ
    dof rx ry rz
    limits (-20.0 45.0)
           (-30.0 30.0)
           (-30.0 30.0)
  end
  begin
     id 15 
     name upperneck
     direction 0.079456 0.981963 -0.171567   
     length 1.88141   
     axis 0 0 0   XYZ
    dof rx ry rz
    limits (-20.0 45.0)
           (-30.0 30.0)
           (-30.0 30.0)
  end
  begin
     id 16
     name head
     direction 0.0262167 0.9967 -0.0768276  
     length 1.89541  
     axis 0 0 0   XYZ
    dof rx ry rz
    limits (-20.0 45.0)
           (-30.0 30.0)
           (-30.0 30.0)
  end
  begin
     id 17 
     name lclavicle
     direction 0.946135 0.322134 -0.0325326  
     length 3.949  
     axis 0 0 0   XYZ
    dof ry rz
    limits (-20.0 10.0)
           (0.0 20.0)
  end
  begin
     id 18 
     name lhumerus
     direction 1 -4.48964e-011 1.94005e-028   
     length 5.10995   
     axis 180 -30 -90   XYZ
    dof rx ry rz
    limits (-60.0 90.0)
           (-90.0 90.0)
           (-90.0 90.0)
  end
  begin
     id 19
     name lradius
     direction 1 -4.48976e-011 2.87852e-027   
     length 3.21207   
     axis 180 -30 -90   XYZ
    dof rx
    limits (-10.0 170.0)
  end
  begin
     id 20
     name lwrist
     direction 1 -4.48963e-011 1.9975e-027   
     length 1.60604   
     axis 2.96054e-016 90 90   XYZ
    dof ry
    limits (-180.0 0.0)
 end
  begin
     id 21 
     name lhand
     direction 1 -4.48919e-011 4.00227e-027   
     length 0.63349   
     axis -2.5488e-015 90 90   XYZ
    dof rx rz
    limits (-90.0 90.0)
           (-45.0 45.0)
  end
  begin
     id 22 
     name lfingers
     direction 1 -4.49037e-011 7.9652e-027   
     length 0.510736   
     axis -5.0975e-015 90 90   XYZ
    dof rx
    limits (0.0 90.0)
  end
  begin
     id 23
     name lthumb
     direction 0.707107 -6.34922e-011 0.707107   
     length 0.733318   
     axis -90 45 -4.48553e-014   XYZ
    dof rx rz
    limits (-45.0 45.0)
           (-45.0 45.0)
  end
  begin
     id 24 
     name rclavicle
     direction -0.940085 0.328911 -0.0897654   
     length 3.93848  
     axis 0 0 0   XYZ 
    dof ry rz
    limits (-10.0 20.0)
           (-20.0 0.0)
  end
  begin
     id 25 
     name rhumerus
     direction -1 -4.48958e-011 3.02044e-027  
     length 5.25109   
     axis 180 30 90   XYZ
    dof rx ry rz
    limits (-90.0 60.0)
           (-90.0 90.0)
           (-90.0 90.0)
  end
  begin
     id 26 
     name rradius
     direction -1 -4.4897e-011 9.78352e-028   
     length 3.28364   
     axis 180 30 90   XYZ
    dof rx
    limits (-10.0 170.0)
  end
  begin
     id 27 
     name rwrist
     direction -1 -4.48943e-011 1.99918e-027   
     length 1.64182   
     axis 2.96054e-016 -90 -90   XYZ
    dof ry
    limits (-180.0 0.0)
  end
  begin
     id 28
     name rhand
     direction -1 -4.49024e-011 3.98478e-027   
     length 0.599745   
     axis -2.5488e-015 -90 -90   XYZ
    dof rx rz
    limits (-90.0 90.0)
           (-45.0 45.0)
  end
  begin
     id 29
     name rfingers
     direction -1 -4.48914e-011 8.00621e-027   
     length 0.48353   
     axis -5.0975e-015 -90 -90   XYZ
    dof rx
    limits (0.0 90.0)
  end
  begin
     id 30
     name rthumb
     direction -0.707107 -6.34992e-011 0.707107   
     length 0.694255   
     axis -90 -45 4.48553e-014   XYZ
    dof rx rz
    limits (-45.0 45.0)
           (-45.0 45.0)
  end
:hierarchy
  begin
    root lhipjoint rhipjoint lowerback
    lhipjoint lfemur
    lfemur ltibia
    ltibia lfoot
    lfoot ltoes
    rhipjoint rfemur
    rfemur rtibia
    rtibia rfoot
    rfoot rtoes
    lowerback upperback
    upperback thorax
    thorax lowerneck lclavicle rclavicle
    lowerneck upperneck
    upperneck head
    lclavicle lhumerus
    lhumerus lradius
    lradius lwrist
    lwrist lhand lthumb
    lhand lfingers
    rclavicle rhumerus
    rhumerus rradius
    rradius rwrist
    rwrist rhand rthumb
    rhand rfingers
  end

#!OML:ASF E:\CV Data\Top Level 1\Subject 1\Session 1\player.ASF
:FULLY-SPECIFIED
:DEGREES
81
root 8.59882 16.9787 -4.68587 66.4254 -86.2271 -64.6037
lowerback 3.07514 2.56583 3.63763
upperback -1.13138 3.60442 2.17093
thorax -2.80378 1.73713 0.00587582
lowerneck -15.8537 11.2895 -2.32798
upperneck 21.9311 15.4425 3.26479
head 9.0172 7.33545 3.30767
rclavicle 4.8081e-015 -1.43125e-014
rhumerus -44.485 38.7647 -105.676
rradius 88.0316
rwrist -11.0956
rhand -25.6438 15.1134
rfingers 7.12502
rthumb 0.889818 -14.8645
lclavicle 4.8081e-015 -1.43125e-014
lhumerus -44.1968 -33.7543 109.758
lradius 90.0397
lwrist 47.6145
lhand -15.3525 39.7322
lfingers 7.12502
lthumb 10.8247 69.4332
rfemur -18.5557 6.18526 25.3509
rtibia 43.828
rfoot -25.7786 -8.31616
rtoes 10.6124
lfemur -18.0074 0.821137 -12.9722
ltibia 40.931
lfoot -19.561 6.73537
ltoes -0.692309
82
root 8.6044 16.978 -4.6923 66.5858 -86.1918 -64.7552
lowerback 3.06235 2.55866 3.72723
upperback -1.13757 3.59758 2.16322
thorax -2.79728 1.73192 -0.0508231
lowerneck -15.7881 11.2822 -2.36136
upperneck 21.9528 15.4204 3.33908
head 9.00382 7.33104 3.32983
rclavicle -2.60967e-014 -1.98785e-014
rhumerus -44.5062 38.7449 -105.669
rradius 88.0006
rwrist -11.1221
rhand -25.663 15.097
rfingers 7.12502
rthumb 0.871184 -14.881
lclavicle -2.60967e-014 -1.98785e-014
lhumerus -44.2369 -33.7909 109.816
lradius 90.036
lwrist 47.4298
lhand -15.3963 39.7554
lfingers 7.12502
lthumb 10.7825 69.4586
rfemur -18.5715 6.19777 25.4062
rtibia 43.8034
rfoot -25.7817 -8.28172
rtoes 10.7185
lfemur -18.066 0.815038 -12.9027
ltibia 40.9662
lfoot -19.5712 6.72066
ltoes -0.556172
83
root 8.60976 16.9773 -4.69904 66.7902 -86.1501 -64.9489
lowerback 3.04391 2.5501 3.81573
upperback -1.14472 3.58858 2.16186
thorax -2.78916 1.72568 -0.100038
lowerneck -15.729 11.2769 -2.38513
upperneck 21.9892 15.4025 3.39994
head 8.99865 7.32697 3.34816
rclavicle -2.23633e-015 -7.95139e-015
rhumerus -44.5395 38.727 -105.661
rradius 87.9716
rwrist -11.1522
rhand -25.6838 15.0834
rfingers 7.12502
rthumb 0.851185 -14.8946
lclavicle -2.23633e-015 -7.95139e-015
lhumerus -44.2811 -33.8293 109.88
lradius 90.0395
lwrist 47.3596
lhand -15.5117 39.8089
lfingers 7.12502
lthumb 10.6712 69.518
rfemur -18.5857 6.21939 25.4709
rtibia 43.7762
rfoot -25.7865 -8.25392
rtoes 10.8355
lfemur -18.1283 0.813583 -12.8259
ltibia 41.0041
lfoot -19.5759 6.71159
ltoes -0.446085
84
root 8.61456 16.9766 -4.70558 67.0467 -86.113 -65.1973
lowerback 3.01961 2.5385 3.89674
upperback -1.15032 3.57485 2.16495
thorax -2.77704 1.71732 -0.139984
lowerneck -15.6672 11.2761 -2.40935
upperneck 22.0285 15.3923 3.45466
head 8.99426 7.32564 3.36538
rclavicle 1.17221e-014 4.77083e-015
rhumerus -44.5871 38.7207 -105.66
rradius 87.9437
rwrist -11.1928
rhand -25.7116 15.064
rfingers 7.12502
rthumb 0.824329 -14.9142
lclavicle 1.17221e-014 4.77083e-015
lhumerus -44.3207 -33.8345 109.96
lradius 90.0347
lwrist 47.384
lhand -15.6502 39.8861
lfingers 7.12502
lthumb 10.5376 69.602
rfemur -18.5942 6.2468 25.5327
rtibia 43.7483
rfoot -25.7933 -8.22805
rtoes 10.943
lfemur -18.1853 0.818697 -12.755
ltibia 41.0416
lfoot -19.5763 6.7097
ltoes -0.354707
85
root 8.61839 16.9761 -4.71141 67.3432 -86.0929 -65.4932
lowerback 2.98878 2.52632 3.96492
upperback -1.15115 3.55925 2.16729
thorax -2.75712 1.70849 -0.173066
lowerneck -15.6048 11.2788 -2.43719
upperneck 22.0699 15.3884 3.5071
head 8.99018 7.32655 3.3831
rclavicle 1.02312e-014 1.31198e-014
rhumerus -44.6468 38.7244 -105.664
rradius 87.9171
rwrist -11.2482
rhand -25.7458 15.043
rfingers 7.12502
rthumb 0.791283 -14.9352
lclavicle 1.02312e-014 1.31198e-014
lhumerus -44.3572 -33.8239 110.046
lradius 90.031
lwrist 47.5065
lhand -15.828 39.9845
lfingers 7.12502
lthumb 10.3661 69.709
rfemur -18.5924 6.27471 25.5755
rtibia 43.7233
rfoot -25.806 -8.19112
rtoes 11.0491
lfemur -18.2248 0.81626 -12.7069
ltibia 41.0749
lfoot -19.5738 6.73288
ltoes -0.281898
86
root 8.62142 16.9757 -4.71635 67.7335 -86.0843 -65.8894
lowerback 2.95325 2.5161 4.0283
upperback -1.1486 3.54563 2.1709
thorax -2.73141 1.70089 -0.201979
lowerneck -15.5405 11.2832 -2.46526
upperneck 22.1134 15.3884 3.5533
head 8.9869 7.32842 3.39925
rclavicle 1.74931e-014 -9.14409e-015
rhumerus -44.7204 38.7307 -105.668
rradius 87.8949
rwrist -11.3173
rhand -25.7757 15.0213
rfingers 7.12502
rthumb 0.762337 -14.9571
lclavicle 1.74931e-014 -9.14409e-015
lhumerus -44.3891 -33.799 110.142
lradius 90.0223
lwrist 47.7045
lhand -16.0026 40.1085
lfingers 7.12502
lthumb 10.1976 69.8414
rfemur -18.5834 6.2983 25.6068
rtibia 43.7017
rfoot -25.8192 -8.1457
rtoes 11.1371
lfemur -18.2474 0.796911 -12.6754
ltibia 41.1032
lfoot -19.5652 6.79351
ltoes -0.240354
87
root 8.62403 16.9749 -4.72068 68.1761 -86.0819 -66.3423
lowerback 2.91672 2.50894 4.09153
upperback -1.14472 3.53588 2.17198
thorax -2.70351 1.69529 -0.233504
lowerneck -15.48 11.2882 -2.48532
upperneck 22.1617 15.3879 3.59732
head 8.98686 7.33019 3.41412
rclavicle -1.69153e-014 0
rhumerus -44.8012 38.7285 -105.674
rradius 87.8745
rwrist -11.3962
rhand -25.7991 14.9978
rfingers 7.12502
rthumb 0.739815 -14.9806
lclavicle -1.69153e-014 0
lhumerus -44.4252 -33.785 110.238
lradius 90.0193
lwrist 47.9714
lhand -16.215 40.2479
lfingers 7.12502
lthumb 9.99271 69.9907
rfemur -18.5723 6.31328 25.6315
rtibia 43.6847
rfoot -25.8331 -8.09051
rtoes 11.2187
lfemur -18.2609 0.79341 -12.6584
ltibia 41.1265
lfoot -19.5381 6.89908
ltoes -0.426484
